<svg xmlns="http://www.w3.org/2000/svg" width="1280" height="720" viewBox="0 0 1280 720" role="img" aria-labelledby="title desc">
  <title id="title">Poolsim sizing flow</title>
  <desc id="desc">A minimal three-stage flow diagram showing inputs, the sizing engine, and outputs.</desc>
  <defs>
    <linearGradient id="bg" x1="0%" y1="0%" x2="100%" y2="100%">
      <stop offset="0%" stop-color="#f7f2e8"/>
      <stop offset="100%" stop-color="#ede2ca"/>
    </linearGradient>
    <linearGradient id="card" x1="0%" y1="0%" x2="100%" y2="100%">
      <stop offset="0%" stop-color="#fffdf8"/>
      <stop offset="100%" stop-color="#fbf2df"/>
    </linearGradient>
    <linearGradient id="engine" x1="0%" y1="0%" x2="100%" y2="100%">
      <stop offset="0%" stop-color="#173b30"/>
      <stop offset="100%" stop-color="#10251d"/>
    </linearGradient>
    <filter id="shadow" x="-20%" y="-20%" width="140%" height="140%">
      <feDropShadow dx="0" dy="14" stdDeviation="16" flood-color="#31230f" flood-opacity="0.14"/>
    </filter>
    <marker id="arrow" viewBox="0 0 12 12" refX="10" refY="6" markerWidth="10" markerHeight="10" orient="auto-start-reverse">
      <path d="M 0 0 L 12 6 L 0 12 z" fill="#b36f18"/>
    </marker>
    <style>
      .title { font: 700 56px Georgia, "Times New Roman", serif; fill: #2d2417; }
      .subtitle { font: 400 22px Georgia, "Times New Roman", serif; fill: #5e4b34; }
      .badge { font: 700 16px "Courier New", Courier, monospace; fill: #fff7e8; }
      .card-title { font: 700 28px Georgia, "Times New Roman", serif; fill: #2f2518; }
      .card-copy { font: 400 20px "Courier New", Courier, monospace; fill: #3a2f23; }
      .engine-title { font: 700 30px Georgia, "Times New Roman", serif; fill: #f8f0dc; }
      .engine-copy { font: 400 20px "Courier New", Courier, monospace; fill: #edf4ee; }
      .footer { font: 400 18px Georgia, "Times New Roman", serif; fill: #4b3c29; }
    </style>
  </defs>

  <rect width="1280" height="720" fill="url(#bg)"/>
  <circle cx="1164" cy="88" r="108" fill="#f1d68d" opacity="0.32"/>
  <circle cx="86" cy="628" r="136" fill="#d9e5db" opacity="0.42"/>

  <text x="76" y="92" class="title">Poolsim Sizing Flow</text>
  <text x="76" y="130" class="subtitle">Measure workload, model queue pressure, recommend a pool size, then apply the result in your real runtime pool.</text>

  <g filter="url(#shadow)">
    <rect x="76" y="216" width="300" height="288" rx="26" fill="url(#card)" stroke="#cb9f53" stroke-width="3"/>
    <rect x="416" y="184" width="448" height="352" rx="30" fill="url(#engine)" stroke="#365846" stroke-width="3"/>
    <rect x="904" y="216" width="300" height="288" rx="26" fill="url(#card)" stroke="#cb9f53" stroke-width="3"/>
  </g>

  <rect x="98" y="240" width="110" height="34" rx="17" fill="#b36f18"/>
  <text x="120" y="262" class="badge">INPUTS</text>
  <text x="106" y="316" class="card-title">What you measure</text>
  <text x="106" y="374" class="card-copy">- request rate</text>
  <text x="106" y="416" class="card-copy">- latency percentiles</text>
  <text x="106" y="458" class="card-copy">- pool and DB limits</text>

  <rect x="446" y="210" width="138" height="36" rx="18" fill="#b36f18"/>
  <text x="468" y="233" class="badge">ENGINE</text>
  <text x="454" y="302" class="engine-title">How poolsim works</text>
  <text x="454" y="374" class="engine-copy">1. validate inputs</text>
  <text x="454" y="426" class="engine-copy">2. fit latency model</text>
  <text x="454" y="478" class="engine-copy">3. simulate and score sizes</text>

  <rect x="926" y="240" width="126" height="34" rx="17" fill="#b36f18"/>
  <text x="948" y="262" class="badge">OUTPUTS</text>
  <text x="934" y="316" class="card-title">What you get</text>
  <text x="934" y="374" class="card-copy">- recommended size</text>
  <text x="934" y="416" class="card-copy">- confidence band</text>
  <text x="934" y="458" class="card-copy">- risk and queue wait</text>

  <path d="M 376 360 C 392 360, 404 360, 416 360" fill="none" stroke="#b36f18" stroke-width="8" marker-end="url(#arrow)"/>
  <path d="M 864 360 C 878 360, 890 360, 904 360" fill="none" stroke="#b36f18" stroke-width="8" marker-end="url(#arrow)"/>

  <g filter="url(#shadow)">
    <rect x="314" y="592" width="652" height="62" rx="31" fill="#faf1df" stroke="#d8bc84" stroke-width="2"/>
  </g>
  <text x="372" y="631" class="footer">Use poolsim to choose settings. Then apply those settings in your real runtime pool.</text>
</svg>
