<svg xmlns="http://www.w3.org/2000/svg" width="1280" height="760" viewBox="0 0 1280 760" role="img" aria-labelledby="title desc">
  <title id="title">Poolsim sizing flow</title>
  <desc id="desc">A clean three-stage diagram showing inputs, the poolsim sizing engine, and outputs used to configure a real runtime pool.</desc>
  <defs>
    <linearGradient id="bg" x1="0%" y1="0%" x2="100%" y2="100%">
      <stop offset="0%" stop-color="#f7f2e8"/>
      <stop offset="100%" stop-color="#ede2ca"/>
    </linearGradient>
    <linearGradient id="engine" x1="0%" y1="0%" x2="100%" y2="100%">
      <stop offset="0%" stop-color="#16392e"/>
      <stop offset="100%" stop-color="#10241d"/>
    </linearGradient>
    <linearGradient id="card" x1="0%" y1="0%" x2="100%" y2="100%">
      <stop offset="0%" stop-color="#fffdf8"/>
      <stop offset="100%" stop-color="#fbf1dc"/>
    </linearGradient>
    <filter id="shadow" x="-20%" y="-20%" width="140%" height="140%">
      <feDropShadow dx="0" dy="14" stdDeviation="16" flood-color="#3c2a10" flood-opacity="0.14"/>
    </filter>
    <marker id="arrow" viewBox="0 0 12 12" refX="10" refY="6" markerWidth="10" markerHeight="10" orient="auto-start-reverse">
      <path d="M 0 0 L 12 6 L 0 12 z" fill="#b36f18"/>
    </marker>
    <style>
      .title { font: 700 54px Georgia, "Times New Roman", serif; fill: #2c2217; }
      .subtitle { font: 400 22px Georgia, "Times New Roman", serif; fill: #5f4a31; }
      .badge { font: 700 16px "Courier New", Courier, monospace; fill: #fff8ea; }
      .card-title { font: 700 25px Georgia, "Times New Roman", serif; fill: #2f2519; }
      .card-copy { font: 400 16px "Courier New", Courier, monospace; fill: #3a2f24; }
      .engine-title { font: 700 34px Georgia, "Times New Roman", serif; fill: #f8f0dc; }
      .engine-copy { font: 400 17px "Courier New", Courier, monospace; fill: #eef5ef; }
      .engine-note { font: 400 18px Georgia, "Times New Roman", serif; fill: #d2ddd6; }
      .footer { font: 400 17px "Courier New", Courier, monospace; fill: #3b3024; }
    </style>
  </defs>

  <rect width="1280" height="760" fill="url(#bg)"/>
  <circle cx="1170" cy="86" r="108" fill="#f2d58d" opacity="0.32"/>
  <circle cx="88" cy="650" r="138" fill="#d8e6dc" opacity="0.44"/>

  <text x="76" y="92" class="title">Poolsim Sizing Flow</text>
  <text x="76" y="130" class="subtitle">Measure workload, model queue pressure, recommend a pool size, then apply the result in your real runtime pool.</text>

  <g filter="url(#shadow)">
    <rect x="72" y="208" width="280" height="336" rx="26" fill="url(#card)" stroke="#c99f54" stroke-width="3"/>
    <rect x="390" y="180" width="500" height="392" rx="30" fill="url(#engine)" stroke="#355747" stroke-width="3"/>
    <rect x="928" y="208" width="280" height="336" rx="26" fill="url(#card)" stroke="#c99f54" stroke-width="3"/>
  </g>

  <rect x="94" y="232" width="112" height="34" rx="17" fill="#b36f18"/>
  <text x="116" y="254" class="badge">INPUTS</text>
  <text x="102" y="306" class="card-title">Workload and limits</text>
  <text x="102" y="354" class="card-copy">- requests per second</text>
  <text x="102" y="392" class="card-copy">- p50 / p95 / p99 latency</text>
  <text x="102" y="430" class="card-copy">- raw latency samples</text>
  <text x="102" y="468" class="card-copy">- pool min / max bounds</text>
  <text x="102" y="506" class="card-copy">- db connection limit</text>

  <rect x="422" y="208" width="168" height="38" rx="19" fill="#b36f18"/>
  <text x="448" y="233" class="badge">SIZING ENGINE</text>
  <text x="430" y="304" class="engine-title">Simulation and recommendation</text>

  <circle cx="438" cy="360" r="18" fill="#b36f18"/>
  <text x="432" y="366" class="badge">1</text>
  <text x="474" y="366" class="engine-copy">validate workload, pool, and option inputs</text>

  <circle cx="438" cy="416" r="18" fill="#b36f18"/>
  <text x="432" y="422" class="badge">2</text>
  <text x="474" y="406" class="engine-copy">fit a latency distribution</text>
  <text x="474" y="430" class="engine-copy">from percentiles or samples</text>

  <circle cx="438" cy="472" r="18" fill="#b36f18"/>
  <text x="432" y="478" class="badge">3</text>
  <text x="474" y="462" class="engine-copy">estimate queue pressure with</text>
  <text x="474" y="486" class="engine-copy">Erlang-C style analysis</text>

  <circle cx="438" cy="528" r="18" fill="#b36f18"/>
  <text x="432" y="534" class="badge">4</text>
  <text x="474" y="518" class="engine-copy">run Monte Carlo simulation</text>
  <text x="474" y="542" class="engine-copy">across candidate pool sizes</text>

  <rect x="430" y="586" width="420" height="2" fill="#8ba797" opacity="0.7"/>
  <text x="430" y="624" class="engine-note">The same core sizing model is exposed through the library, CLI, and REST/WebSocket API.</text>

  <rect x="950" y="232" width="120" height="34" rx="17" fill="#b36f18"/>
  <text x="972" y="254" class="badge">OUTPUTS</text>
  <text x="958" y="306" class="card-title">Decision-ready results</text>
  <text x="958" y="354" class="card-copy">- recommended pool size</text>
  <text x="958" y="392" class="card-copy">- confidence interval</text>
  <text x="958" y="430" class="card-copy">- utilization and queue wait</text>
  <text x="958" y="468" class="card-copy">- saturation and risk</text>
  <text x="958" y="506" class="card-copy">- sensitivity table</text>

  <path d="M 352 392 C 366 392, 378 392, 390 392" fill="none" stroke="#b36f18" stroke-width="8" marker-end="url(#arrow)"/>
  <path d="M 890 392 C 904 392, 916 392, 928 392" fill="none" stroke="#b36f18" stroke-width="8" marker-end="url(#arrow)"/>

  <g filter="url(#shadow)">
    <rect x="372" y="648" width="536" height="54" rx="27" fill="#f9f0dc" stroke="#d8bc84" stroke-width="2"/>
  </g>
  <text x="420" y="682" class="footer">Use poolsim to choose settings. Apply those settings in your real runtime pool.</text>
</svg>
