<svg xmlns="http://www.w3.org/2000/svg" width="1280" height="720" viewBox="0 0 1280 720" role="img" aria-labelledby="title desc">
  <title id="title">Poolsim sizing flow</title>
  <desc id="desc">A high-contrast flow diagram showing workload inputs entering the poolsim sizing engine and producing recommended pool settings and risk outputs.</desc>
  <defs>
    <linearGradient id="bg" x1="0%" y1="0%" x2="100%" y2="100%">
      <stop offset="0%" stop-color="#f6f1e7"/>
      <stop offset="100%" stop-color="#ece3d0"/>
    </linearGradient>
    <linearGradient id="engine" x1="0%" y1="0%" x2="100%" y2="100%">
      <stop offset="0%" stop-color="#14352b"/>
      <stop offset="100%" stop-color="#10231d"/>
    </linearGradient>
    <linearGradient id="card" x1="0%" y1="0%" x2="100%" y2="100%">
      <stop offset="0%" stop-color="#fffdf8"/>
      <stop offset="100%" stop-color="#f8efd9"/>
    </linearGradient>
    <filter id="shadow" x="-20%" y="-20%" width="140%" height="140%">
      <feDropShadow dx="0" dy="16" stdDeviation="18" flood-color="#2c2213" flood-opacity="0.14"/>
    </filter>
    <marker id="arrow" viewBox="0 0 12 12" refX="10" refY="6" markerWidth="10" markerHeight="10" orient="auto-start-reverse">
      <path d="M 0 0 L 12 6 L 0 12 z" fill="#a56718"/>
    </marker>
    <style>
      .title { font: 700 54px Georgia, "Times New Roman", serif; fill: #2e2418; }
      .subtitle { font: 400 22px Georgia, "Times New Roman", serif; fill: #5c4a34; }
      .card-title { font: 700 24px Georgia, "Times New Roman", serif; fill: #2e2418; }
      .card-copy { font: 400 19px "Courier New", Courier, monospace; fill: #3a2f22; }
      .engine-title { font: 700 30px Georgia, "Times New Roman", serif; fill: #f5ecd6; }
      .engine-copy { font: 400 20px "Courier New", Courier, monospace; fill: #ecf4ee; }
      .engine-note { font: 400 18px Georgia, "Times New Roman", serif; fill: #c9d9d0; }
      .badge-text { font: 700 16px "Courier New", Courier, monospace; fill: #fff7ea; }
    </style>
  </defs>

  <rect width="1280" height="720" fill="url(#bg)"/>
  <circle cx="1170" cy="92" r="110" fill="#f2d791" opacity="0.34"/>
  <circle cx="82" cy="620" r="150" fill="#d7e6dc" opacity="0.46"/>
  <path d="M 980 660 C 1070 620, 1160 640, 1280 600 L 1280 720 L 980 720 Z" fill="#e7d7ae" opacity="0.42"/>

  <text x="78" y="90" class="title">Poolsim Sizing Flow</text>
  <text x="78" y="128" class="subtitle">Measure workload, model queue pressure, recommend a pool size, then apply the result in your real runtime pool.</text>

  <g filter="url(#shadow)">
    <rect x="76" y="208" width="290" height="314" rx="26" fill="url(#card)" stroke="#caa35a" stroke-width="3"/>
    <rect x="398" y="176" width="484" height="378" rx="30" fill="url(#engine)" stroke="#355647" stroke-width="3"/>
    <rect x="914" y="208" width="290" height="314" rx="26" fill="url(#card)" stroke="#caa35a" stroke-width="3"/>
  </g>

  <rect x="98" y="230" width="114" height="34" rx="17" fill="#b06e1a"/>
  <text x="120" y="252" class="badge-text">INPUTS</text>
  <text x="106" y="296" class="card-title">Workload and limits</text>
  <text x="106" y="344" class="card-copy">- requests per second</text>
  <text x="106" y="384" class="card-copy">- p50 / p95 / p99 latency</text>
  <text x="106" y="424" class="card-copy">- raw latency samples</text>
  <text x="106" y="464" class="card-copy">- pool min / max bounds</text>
  <text x="106" y="504" class="card-copy">- db connection limit</text>

  <rect x="430" y="204" width="168" height="38" rx="19" fill="#b06e1a"/>
  <text x="456" y="229" class="badge-text">SIZING ENGINE</text>
  <text x="438" y="284" class="engine-title">Simulation and recommendation</text>

  <circle cx="448" cy="336" r="17" fill="#b06e1a"/>
  <text x="442" y="342" class="badge-text">1</text>
  <text x="480" y="343" class="engine-copy">validate workload, pool, and option inputs</text>

  <circle cx="448" cy="390" r="17" fill="#b06e1a"/>
  <text x="442" y="396" class="badge-text">2</text>
  <text x="480" y="397" class="engine-copy">fit a latency distribution from percentiles or samples</text>

  <circle cx="448" cy="444" r="17" fill="#b06e1a"/>
  <text x="442" y="450" class="badge-text">3</text>
  <text x="480" y="451" class="engine-copy">estimate queue pressure with Erlang-C style analysis</text>

  <circle cx="448" cy="498" r="17" fill="#b06e1a"/>
  <text x="442" y="504" class="badge-text">4</text>
  <text x="480" y="505" class="engine-copy">run Monte Carlo simulation across candidate sizes</text>

  <rect x="438" y="530" width="404" height="2" fill="#89a795" opacity="0.65"/>
  <text x="438" y="570" class="engine-note">The same core sizing model is exposed through the library, CLI, and REST/WebSocket API.</text>

  <rect x="936" y="230" width="128" height="34" rx="17" fill="#b06e1a"/>
  <text x="958" y="252" class="badge-text">OUTPUTS</text>
  <text x="944" y="296" class="card-title">Decision-ready results</text>
  <text x="944" y="344" class="card-copy">- recommended pool size</text>
  <text x="944" y="384" class="card-copy">- confidence interval</text>
  <text x="944" y="424" class="card-copy">- rho and queue wait</text>
  <text x="944" y="464" class="card-copy">- saturation and risk</text>
  <text x="944" y="504" class="card-copy">- sensitivity table</text>

  <path d="M 366 365 C 380 365, 388 365, 398 365" fill="none" stroke="#a56718" stroke-width="7" marker-end="url(#arrow)"/>
  <path d="M 882 365 C 894 365, 902 365, 914 365" fill="none" stroke="#a56718" stroke-width="7" marker-end="url(#arrow)"/>

  <rect x="390" y="628" width="500" height="48" rx="24" fill="#f6edd8" stroke="#d8be87" stroke-width="2"/>
  <text x="430" y="658" class="card-copy">Use poolsim to choose settings. Apply those settings in your real runtime pool.</text>
</svg>
